<?xml version="1.0" encoding="UTF-8"?>
<svg id="Layer_2" data-name="Layer 2" xmlns="http://www.w3.org/2000/svg" viewBox="0 0 20.51 20.51">
  <defs>
    <style>
      .cls-1 {
        fill: #fff;
      }
    </style>
  </defs>
  <g id="Layer_1-2" data-name="Layer 1">
    <path class="cls-1" d="M9.95,0h.62c2.52,0,4.9,1.07,7.16,3.21,1.58,1.92,2.46,3.66,2.61,5.22.12.74.18,1.2.18,1.4v.84c0,1.37-.46,2.95-1.39,4.74-1.35,2.21-3.28,3.75-5.77,4.61-1.27.32-2.26.49-2.97.49h-.24c-2.62,0-5.05-1.05-7.29-3.16C.95,15.25,0,12.8,0,10.01v-.12c0-.09.02-.17.06-.24,0-.05-.02-.07-.06-.07.26-1.97.78-3.57,1.58-4.79C2.84,2.74,4.78,1.29,7.4.42c.98-.28,1.83-.42,2.54-.42ZM8.56,6.55l.06,1.88c0,.06-.06.12-.18.19h-1.03v2.12h1.03c.06,0,.12.06.18.19v5.22l.03.37h2.16v-5.64c.01-.09.05-.13.12-.13h1.76c.08,0,.18-.67.31-2v-.12h-2.07c-.08,0-.12-.04-.12-.12v-1.46c0-.62.36-.97,1.09-1.03h1.21v-1.82c0-.12-.42-.18-1.27-.18h-.31c-1.4,0-2.31.52-2.73,1.57-.08.22-.16.54-.24.97Z"/>
  </g>
</svg>