<?xml version="1.0" encoding="UTF-8"?>
<svg id="Layer_2" data-name="Layer 2" xmlns="http://www.w3.org/2000/svg" viewBox="0 0 20.5 20.44">
  <defs>
    <style>
      .cls-1 {
        fill: #fff;
      }
    </style>
  </defs>
  <g id="Layer_1-2" data-name="Layer 1">
    <path class="cls-1" d="M9.52,0h1.46c1.56,0,3.34.65,5.34,1.94,1.5,1.17,2.59,2.53,3.27,4.06.61,1.46.91,2.7.91,3.71v.84c0,2.27-.93,4.51-2.79,6.74-2.16,2.1-4.67,3.15-7.52,3.15-3.56,0-6.48-1.66-8.74-4.98-.97-1.79-1.45-3.55-1.45-5.28,0-2.85,1.17-5.42,3.52-7.7C5.7.83,7.71,0,9.52,0ZM4.79,8.85v3.16c0,1.72.55,2.87,1.64,3.45.49.28,2.07.38,4.73.31,2.04,0,3.21-.22,3.52-.67.69-.55,1.03-1.46,1.03-2.73v-4.06c0-1.6-.57-2.65-1.7-3.15l-.75-.25-.77-.06h-4.42c-1.58,0-2.63.77-3.16,2.31-.08.47-.12,1.04-.12,1.7ZM8.25,5.82h4.24c1.54,0,2.31.81,2.31,2.42v4.3c-.21,1.5-.83,2.25-1.88,2.25h-1.76c-.82,0-1.69.02-2.6.06-1.52,0-2.42-.48-2.67-1.45-.08-.54-.12-1.34-.12-2.42v-1.34c0-2.02.16-3.03.49-3.03.32-.52.99-.79,2-.79ZM7.46,10.38c0,1.31.75,2.21,2.25,2.72h1.21c1.45-.52,2.18-1.45,2.18-2.78v-.13c0-.75-.38-1.46-1.15-2.12-.52-.36-1.07-.55-1.63-.55h-.06c-1.25,0-2.12.65-2.61,1.94-.07.09-.13.39-.18.91ZM10.26,8.49h.06c.88,0,1.46.47,1.76,1.4.04.05.06.2.06.43-.19,1.25-.8,1.88-1.82,1.88-.81,0-1.39-.4-1.76-1.21-.05-.07-.1-.27-.13-.61.15-1.26.75-1.89,1.83-1.89ZM12.55,7.46c.18.4.4.61.68.61s.49-.2.67-.61c-.09-.49-.34-.74-.74-.74-.4.13-.61.37-.61.74Z"/>
  </g>
</svg>