<?xml version="1.0" encoding="UTF-8"?>
<svg id="Layer_2" data-name="Layer 2" xmlns="http://www.w3.org/2000/svg" viewBox="0 0 20.35 20.42">
  <defs>
    <style>
      .cls-1 {
        fill: #fff;
      }
    </style>
  </defs>
  <g id="Layer_1-2" data-name="Layer 1">
    <path class="cls-1" d="M9.97,0h.48c2.14,0,4.28.82,6.41,2.47,1.58,1.59,2.55,3.02,2.9,4.29.24.53.4,1.13.48,1.81.08.68.12,1.12.12,1.33v.96c-.16,1.46-.48,2.69-.96,3.69-1.07,2.16-2.7,3.79-4.89,4.89-1.57.65-2.98.97-4.23.97h-.12c-2.53,0-4.85-.93-6.95-2.78-1.32-1.37-2.14-2.58-2.47-3.63-.36-.82-.61-1.84-.73-3.08v-1.27c0-2.08.86-4.19,2.59-6.34C4.86,1.11,7.32,0,9.97,0ZM6.1,6.52v.37c.11.6.49.9,1.14.9.53,0,.89-.3,1.09-.9v-.06c0-.62-.38-.99-1.15-1.09-.47,0-.83.26-1.08.78ZM6.22,8.7v5.62c.01.08.05.12.12.12h1.69c.08,0,.12-.04.12-.12v-5.51l-.12-.24h-1.69c-.08.01-.12.05-.12.12ZM11.3,9.18h-.13v-.61h-1.93v5.74c.01.08.05.12.12.12h1.69c.08,0,.12-.04.12-.12v-3.08c.1-.85.44-1.27,1.03-1.27.68,0,1.02.42,1.02,1.27v3.08c.01.08.05.12.12.12h1.82v-3.81c0-.68-.32-1.31-.97-1.88-.49-.2-.79-.3-.9-.3h-.61c-.47.02-.93.26-1.38.73Z"/>
  </g>
</svg>