<?xml version="1.0" encoding="UTF-8"?>
<svg id="Layer_2" data-name="Layer 2" xmlns="http://www.w3.org/2000/svg" viewBox="0 0 20.5 20.44">
  <defs>
    <style>
      .cls-1 {
        fill: #fff;
      }
    </style>
  </defs>
  <g id="Layer_1-2" data-name="Layer 1">
    <path class="cls-1" d="M10.98,0c1.81,0,3.79.81,5.94,2.42,2.39,2.27,3.58,4.85,3.58,7.76,0,3.39-1.5,6.22-4.49,8.5-1.79,1.17-3.71,1.76-5.75,1.76-3.72,0-6.67-1.7-8.86-5.1-.93-1.64-1.39-3.36-1.39-5.16C0,6.89,1.43,4.12,4.3,1.88,5.87.8,7.53.17,9.28,0h1.7ZM4.61,7.27v6.56c.05.4.25.61.61.61h10.07c.4-.06.61-.26.61-.61v-6.49c0-.25-.12-.45-.36-.62H4.97c-.24.15-.36.33-.36.55ZM5.28,7.34h.06c.38.26,1.6,1.25,3.64,2.97.42.37.85.71,1.28,1.02,1.72-1.4,3.28-2.69,4.66-3.88l.07.12c-.76.66-1.65,1.53-2.67,2.6l2.97,3.52v.13l-3.4-3.34h-.06c0,.11-.52.66-1.57,1.64l-1.7-1.58c-1.11,1.17-2.25,2.28-3.4,3.34v-.12l3.03-3.59c-.32-.37-1.29-1.32-2.91-2.84Z"/>
  </g>
</svg>