<?xml version="1.0" encoding="UTF-8"?>
<svg id="Layer_2" data-name="Layer 2" xmlns="http://www.w3.org/2000/svg" viewBox="0 0 20.4 20.4">
  <defs>
    <style>
      .cls-1 {
        fill: #fff;
      }
    </style>
  </defs>
  <g id="Layer_1-2" data-name="Layer 1">
    <path class="cls-1" d="M9.96,0h.67c1.09,0,2.5.36,4.22,1.08,3.7,2.23,5.56,5.29,5.56,9.18,0,3.6-1.69,6.52-5.07,8.75-1.8.93-3.37,1.39-4.71,1.39h-.79c-1.09,0-2.45-.34-4.1-1.02-1.11-.56-2.16-1.36-3.14-2.41-1.14-1.38-1.86-2.71-2.17-3.99-.25-.93-.37-1.56-.37-1.87v-.67c0-.09-.02-.18-.06-.25.04-.07.06-.15.06-.24v-.67c0-1.03.46-2.48,1.39-4.34C2.89,2.74,4.78,1.25,7.12.49c1.17-.32,2.12-.49,2.83-.49ZM6.09,7.97l.07.12c-.05.08-.07.14-.07.18.15,1.17.73,2.46,1.76,3.87,1.76,1.97,3.25,2.95,4.46,2.95h.37c1-.7,1.58-1.24,1.75-1.63,0-.24-.44-.62-1.33-1.14-.37-.33-.67-.51-.9-.55-.3.15-.63.38-.96.67-.56,0-1.39-.83-2.47-2.47l-.18-.61c.52-.44.78-.76.78-.96-.58-1.47-.94-2.26-1.08-2.36h-.24c-.29,0-.89.5-1.81,1.51l-.13.43Z"/>
  </g>
</svg>