<?xml version="1.0" encoding="UTF-8"?>
<svg id="Layer_2" data-name="Layer 2" xmlns="http://www.w3.org/2000/svg" viewBox="0 0 20.53 20.47">
  <defs>
    <style>
      .cls-1 {
        fill: #fff;
      }
    </style>
  </defs>
  <g id="Layer_1-2" data-name="Layer 1">
    <path class="cls-1" d="M10.18,0h.43c2.01,0,4.03.75,6.05,2.24,2.58,2.22,3.88,4.89,3.88,8s-1.35,5.96-4.06,8.18c-2.01,1.37-3.81,2.06-5.4,2.06h-1.63c-1.54,0-3.32-.67-5.34-2-1.55-1.35-2.48-2.42-2.78-3.21-.89-1.66-1.33-3.26-1.33-4.79v-.61c0-1.19.38-2.64,1.15-4.35C2.5,3.12,4.48,1.44,7.09.49c1.17-.32,2.2-.49,3.09-.49ZM5.15,10.24c0,2.07,1.05,3.64,3.15,4.72.31.13.79.26,1.45.37h.91c1.24,0,2.45-.65,3.63-1.94.73-1.09,1.09-2.04,1.09-2.85l-.06-.12.06-.12-.06-.12s.02-.06.06-.06c0-1.49-.71-2.82-2.12-4-1.02-.65-1.93-.97-2.73-.97h-.54c-1.47,0-2.81.77-4,2.31-.56.98-.84,1.91-.84,2.78ZM6.54,7.45h.12c.26.17.64.34,1.15.54v.31c-.19.43-.33,1.04-.42,1.82l-.13.06h-1.51c-.1,0-.16-.08-.18-.25,0-.83.32-1.65.96-2.47ZM5.75,10.53h1.57c.06,0,.2.55.43,1.64.08,0,.12.14.12.43-.54.2-.94.38-1.21.54-.27,0-.59-.62-.96-1.87-.04-.07-.08-.28-.12-.61l.18-.13ZM9.45,5.63l.06.12c-.23.09-.73.69-1.52,1.82h-.06c-.61-.17-.95-.33-1.02-.49v-.12c1.02-.89,1.87-1.33,2.54-1.33ZM8.06,13.02c.38.59.84,1.18,1.39,1.76v.12c-1.15-.27-1.99-.74-2.54-1.39.43-.33.82-.49,1.15-.49ZM8.36,8.12c1.06.13,1.63.23,1.7.3v1.58c0,.05-.06.11-.19.18h-1.88s-.09-.06-.18-.18c.18-1.25.36-1.88.55-1.88ZM7.99,10.53h1.94c.09.01.13.06.13.13v1.45c0,.13-.59.25-1.76.36-.29-.62-.43-1.22-.43-1.81.01-.09.05-.13.12-.13ZM10,5.81l.06.12v1.82c0,.06-.06.12-.19.18h-.18c-.77-.07-1.15-.15-1.15-.24,0-.36.49-.98,1.46-1.88ZM9.75,12.66h.12c.06,0,.12.06.19.18v1.7l-.06.12c-.87-.74-1.35-1.32-1.46-1.76.05-.08.46-.16,1.21-.24ZM10.53,5.81c.75.68,1.26,1.28,1.52,1.82,0,.14-.4.24-1.21.3h-.31c-.08,0-.12-.04-.12-.12v-1.88c.01-.08.05-.12.12-.12ZM12.23,8.12c.32.68.49,1.3.49,1.88,0,.05-.06.11-.18.18h-1.94c-.06,0-.12-.06-.19-.18v-1.52c0-.13.61-.25,1.82-.36ZM10.53,10.53h2.07c.08.01.12.06.12.13-.15,1.06-.35,1.66-.61,1.81-1.04-.13-1.61-.22-1.7-.3v-1.51c.01-.09.05-.13.12-.13ZM10.53,12.66h.19c.85.05,1.27.15,1.27.3-.27.56-.76,1.15-1.46,1.76-.08,0-.12-.04-.12-.12v-1.82c.01-.08.05-.12.12-.12ZM11.08,5.63c.66.04,1.43.4,2.31,1.08l.3.37c-.49.32-.89.49-1.21.49-.32-.6-.8-1.23-1.45-1.88.04,0,.06-.02.06-.06ZM12.54,12.96c.68.26,1.02.44,1.02.55v.06c-.52.62-1.35,1.06-2.48,1.33v-.12c.36-.34.85-.95,1.46-1.82ZM14.84,10.53c.08.01.12.06.12.13,0,.88-.36,1.71-1.08,2.47-.81-.36-1.21-.58-1.21-.67v-.06c.19-.39.34-1.02.48-1.88h1.7ZM13.87,7.45h.12c.64.79.96,1.61.96,2.47v.07c0,.05-.06.11-.18.18h-1.51c-.14,0-.24-.44-.31-1.33-.16-.3-.24-.59-.24-.85.57-.24.95-.42,1.15-.54Z"/>
  </g>
</svg>