<?xml version="1.0" encoding="UTF-8"?>
<svg id="Layer_2" data-name="Layer 2" xmlns="http://www.w3.org/2000/svg" viewBox="0 0 20.46 20.46">
  <defs>
    <style>
      .cls-1 {
        fill: #fff;
      }
    </style>
  </defs>
  <g id="Layer_1-2" data-name="Layer 1">
    <path class="cls-1" d="M10.27,0h.06c2.58,0,5,1.03,7.23,3.08,1.93,2.13,2.9,4.53,2.9,7.19,0,3.66-1.69,6.59-5.07,8.8-1.64.93-3.35,1.39-5.13,1.39-3.6,0-6.54-1.65-8.82-4.95-.97-1.82-1.45-3.57-1.45-5.25C0,6.81,1.55,3.96,4.65,1.69c1.83-1.13,3.7-1.69,5.62-1.69ZM5.5,9.66v.79c0,.6.22,1.34.67,2.23-.29,1.13-.53,1.99-.73,2.6.04,0,.06.02.06.06l2.53-.67h.12c1,.4,1.79.61,2.36.61h.24c1.46,0,2.77-.63,3.93-1.88.8-1.04,1.2-2.17,1.2-3.38,0-2.07-1.04-3.66-3.13-4.77-.67-.24-1.26-.36-1.76-.36h-.54c-2.15,0-3.74,1.21-4.77,3.62-.12.63-.18,1.01-.18,1.15ZM10.74,5.73c1.82,0,3.17.97,4.04,2.9.16.48.24.98.24,1.5,0,.04-.02.06-.06.06,0,.05.02.07.06.07,0,1.32-.74,2.52-2.23,3.62-.82.36-1.53.55-2.12.55-.68,0-1.48-.22-2.42-.67h-.18l-1.15.3h-.12l-.12-.06c.24-.91.37-1.41.37-1.51-.48-.87-.73-1.53-.73-1.99v-.73c0-1.42.83-2.65,2.47-3.69.66-.24,1.31-.36,1.93-.36ZM8.03,8.87c0,1,.83,2.07,2.47,3.2.7.32,1.14.48,1.32.48h.37c.72-.17,1.08-.47,1.08-.9v-.3c-.02-.13-.42-.33-1.2-.61h-.12l-.67.67c-.83-.32-1.47-.89-1.94-1.69v-.06c.28-.34.43-.59.43-.73-.28-.85-.52-1.27-.73-1.27h-.18c-.56.15-.84.55-.84,1.21Z"/>
  </g>
</svg>