<?xml version="1.0" encoding="UTF-8"?>
<svg id="Layer_2" data-name="Layer 2" xmlns="http://www.w3.org/2000/svg" viewBox="0 0 20.44 20.44">
  <defs>
    <style>
      .cls-1 {
        fill: #fff;
      }
    </style>
  </defs>
  <g id="Layer_1-2" data-name="Layer 1">
    <path class="cls-1" d="M10.05,0h.42c2.28,0,4.48.87,6.6,2.6,2.25,2.29,3.38,4.68,3.38,7.2v.97c0,1.46-.56,3.17-1.69,5.14-1.39,1.99-3.29,3.36-5.68,4.11-1.11.28-2.04.42-2.78.42h-.06c-2.78,0-5.26-1.09-7.44-3.26C.93,15.06,0,12.74,0,10.23c0-2.69,1.05-5.15,3.15-7.38C5.34.95,7.64,0,10.05,0ZM4.79,4.47l4.41,5.92v.04l-4.45,4.85h.95l3.98-4.25c2.11,2.82,3.18,4.24,3.22,4.25h3.38l-4.69-6.32v-.04c.17-.14,1.54-1.62,4.13-4.45h-.95l-3.62,3.86h-.08c-1.78-2.45-2.75-3.73-2.9-3.86h-3.38ZM6.34,5.19h1.47c4.64,6.15,6.96,9.26,6.96,9.34h-1.51c-.09-.07-2.42-3.17-7-9.3l.08-.04Z"/>
  </g>
</svg>