<?xml version="1.0" encoding="UTF-8"?>
<svg id="Layer_2" data-name="Layer 2" xmlns="http://www.w3.org/2000/svg" viewBox="0 0 20.43 20.43">
  <defs>
    <style>
      .cls-1 {
        fill: #fff;
      }
    </style>
  </defs>
  <g id="Layer_1-2" data-name="Layer 1">
    <path class="cls-1" d="M10.22,0c3.33,0,6.11,1.45,8.34,4.35,1.25,1.9,1.88,3.87,1.88,5.92,0,2.38-.87,4.61-2.6,6.71-2.19,2.3-4.73,3.45-7.61,3.45-3.28,0-6.04-1.41-8.28-4.23-.7-.94-1.27-2.17-1.7-3.69l-.24-1.69v-1.09c.07-1.52.52-3.05,1.33-4.59C3.58,1.71,6.55,0,10.22,0ZM9.79,6.29c-3.39,0-5.08.26-5.08.79-.26.16-.42,1.25-.48,3.26v.06c0,2.28.28,3.57.84,3.88.44.2,1.44.3,3.02.3h5.45c1.26,0,2.01-.28,2.24-.84.24-.6.36-1.57.36-2.9v-.84c0-1.89-.24-3-.73-3.33-.36-.24-2.24-.36-5.62-.36ZM9,8.77h.06c1.9.99,2.89,1.53,2.96,1.63l-2.83,1.57h-.19v-3.2Z"/>
  </g>
</svg>